<?xml version="1.0" standalone="no"?>
<!DOCTYPE svg PUBLIC "-//W3C//DTD SVG 20010904//EN"
 "http://www.w3.org/TR/2001/REC-SVG-20010904/DTD/svg10.dtd">
<svg version="1.0" xmlns="http://www.w3.org/2000/svg"
 width="600.000000pt" height="600.000000pt" viewBox="0 0 600.000000 600.000000"
 preserveAspectRatio="xMidYMid meet">
<metadata>
Created by potrace 1.14, written by Peter Selinger 2001-2017
</metadata>
<g transform="translate(0.000000,600.000000) scale(0.100000,-0.100000)"
fill="#000000" stroke="none">
<path d="M1139 5546 c-3 -3 -20 -8 -39 -11 -219 -37 -433 -192 -549 -397 -28
-50 -67 -146 -76 -189 -2 -9 -8 -34 -14 -55 -14 -51 -15 -3699 -1 -3770 15
-77 17 -86 35 -139 20 -57 49 -118 76 -156 14 -20 15 -29 6 -38 -9 -10 -9 -11
4 -6 9 3 22 -1 29 -10 7 -8 10 -15 7 -15 -13 0 122 -128 168 -160 28 -19 52
-37 55 -40 10 -10 102 -51 158 -69 61 -20 96 -28 152 -36 56 -8 3661 -7 3705
1 22 4 54 8 72 8 17 1 29 4 27 7 -7 12 51 17 66 6 13 -10 13 -10 1 6 -12 15
-11 17 2 17 22 0 158 72 209 110 70 53 157 150 201 225 23 39 45 72 49 73 5 2
5 8 2 13 -3 6 -1 15 4 22 18 23 49 140 57 217 6 53 5 3639 -1 3685 -22 182
-114 362 -248 489 -59 55 -178 131 -244 156 -158 59 7 55 -2038 58 -1029 1
-1873 0 -1875 -2z"/>
<path d="M2607 399 c7 -7 15 -10 18 -7 3 3 -2 9 -12 12 -14 6 -15 5 -6 -5z"/>
</g>
</svg>
